<?xml version="1.0" standalone="no"?>
<!DOCTYPE svg PUBLIC "-//W3C//DTD SVG 20010904//EN"
 "http://www.w3.org/TR/2001/REC-SVG-20010904/DTD/svg10.dtd">
<svg version="1.0" xmlns="http://www.w3.org/2000/svg"
 width="256.000000pt" height="256.000000pt" viewBox="0 0 256.000000 256.000000"
 preserveAspectRatio="xMidYMid meet">
<metadata>
Created by potrace 1.11, written by Peter Selinger 2001-2013
</metadata>
<g transform="translate(0.000000,256.000000) scale(0.100000,-0.100000)"
fill="#000000" stroke="none">
<path d="M1261 2544 c-1 -7 -17 -15 -36 -18 -19 -4 -39 -14 -44 -24 -8 -14
-10 -14 -11 -2 0 13 -1 13 -10 0 -9 -13 -10 -13 -10 0 -1 12 -3 11 -11 -3 -6
-9 -14 -15 -19 -12 -5 3 -11 1 -15 -5 -4 -6 -11 -8 -16 -5 -5 4 -9 1 -9 -5 0
-6 -5 -8 -10 -5 -6 4 -17 1 -25 -5 -8 -6 -18 -9 -24 -6 -5 3 -11 -1 -14 -9 -4
-8 -15 -12 -27 -10 -12 2 -23 -2 -27 -10 -3 -8 -9 -12 -14 -9 -8 5 -56 -13
-102 -37 -10 -5 -22 -7 -27 -4 -4 3 -16 -2 -24 -11 -10 -10 -16 -11 -16 -3 0
9 -3 9 -15 -1 -8 -6 -20 -8 -26 -4 -7 4 -9 3 -6 -3 8 -13 -20 -26 -36 -16 -7
4 -8 0 -3 -12 5 -15 4 -16 -8 -6 -10 8 -16 9 -21 1 -3 -5 -17 -10 -31 -10 -13
0 -24 -6 -24 -12 0 -9 -4 -8 -10 2 -7 12 -10 12 -10 1 0 -7 -6 -11 -14 -8 -10
4 -13 1 -9 -9 4 -10 0 -12 -11 -8 -9 3 -16 2 -16 -4 0 -6 -8 -8 -18 -5 -10 2
-24 -3 -32 -11 -10 -12 -16 -14 -26 -5 -11 9 -14 8 -14 0 0 -7 -5 -9 -10 -6
-6 3 -13 0 -16 -8 -3 -9 -16 -14 -29 -12 -14 1 -22 -1 -20 -6 3 -4 1 -10 -5
-14 -5 -3 -10 0 -10 7 0 8 -3 9 -8 3 -4 -5 -14 -11 -22 -13 -8 -2 -27 -10 -43
-17 -19 -9 -25 -10 -21 -2 3 7 -3 3 -13 -9 -10 -12 -29 -20 -46 -19 -15 0 -27
-2 -27 -6 0 -4 -7 -10 -16 -13 -8 -3 -13 -2 -10 2 3 5 -1 9 -9 9 -8 0 -13 -5
-12 -11 1 -6 -3 -10 -10 -9 -7 2 -17 -7 -24 -18 -8 -16 -8 -20 0 -14 8 4 10
-1 7 -18 -3 -18 1 -28 12 -32 15 -6 15 -8 -2 -21 -11 -8 -15 -14 -9 -14 13 0
12 -18 -1 -39 -7 -10 -6 -12 4 -6 10 6 12 3 8 -13 -4 -15 -2 -19 9 -15 13 5
13 3 3 -16 -6 -13 -9 -25 -6 -28 3 -4 1 -12 -6 -20 -9 -11 -8 -13 3 -11 9 2
14 -6 14 -24 -1 -16 2 -28 6 -28 3 0 5 -13 3 -30 -2 -19 1 -30 9 -30 8 0 7 -4
-3 -10 -13 -9 -13 -10 0 -10 9 0 11 -3 5 -8 -14 -10 -17 -32 -4 -32 5 0 9 -8
7 -17 -1 -10 1 -24 5 -30 5 -7 4 -13 0 -13 -5 0 -7 -16 -5 -35 3 -23 8 -32 16
-28 6 4 5 -1 -3 -10 -7 -9 -9 -17 -3 -17 12 0 10 -33 -3 -42 -6 -5 -5 -8 4 -8
10 0 11 -3 2 -14 -8 -10 -9 -16 -1 -21 5 -3 10 -16 10 -29 0 -12 6 -28 13 -35
10 -10 8 -11 -8 -5 -17 7 -18 5 -8 -8 7 -8 10 -18 6 -21 -3 -4 0 -7 7 -7 7 0
10 -3 7 -6 -3 -4 -2 -16 4 -27 8 -14 8 -18 0 -13 -6 4 -11 3 -11 -3 0 -5 8
-15 18 -20 9 -6 12 -11 5 -11 -16 0 -11 -89 6 -99 9 -6 10 -11 2 -15 -6 -4
-11 -12 -11 -17 0 -6 4 -7 10 -4 7 4 7 -2 0 -19 -7 -19 -5 -29 6 -41 9 -8 11
-15 4 -15 -7 0 -8 -6 -1 -19 6 -10 7 -21 4 -25 -11 -11 -10 -46 0 -46 6 0 7
-3 4 -6 -3 -4 -2 -16 4 -27 8 -14 8 -18 0 -13 -6 4 -11 2 -11 -3 0 -6 5 -11
11 -11 8 0 8 -4 0 -14 -9 -11 -8 -18 4 -30 11 -10 12 -16 4 -16 -8 0 -8 -5 2
-17 9 -10 9 -14 2 -10 -8 5 -8 -1 2 -20 10 -19 11 -29 4 -34 -8 -4 -7 -9 1
-14 9 -6 9 -10 -1 -16 -8 -5 -9 -9 -3 -9 6 0 10 -11 9 -25 -2 -14 1 -25 6 -25
6 0 7 -5 4 -11 -12 -18 -13 -59 -2 -52 6 4 8 0 4 -9 -3 -9 0 -21 6 -28 9 -10
9 -11 -3 -5 -8 4 -6 -1 5 -12 11 -11 26 -18 32 -16 7 3 16 -2 19 -11 3 -9 10
-13 15 -10 5 3 9 -2 9 -11 0 -12 6 -15 20 -10 14 4 20 2 18 -7 -2 -7 3 -12 10
-10 6 1 12 -3 12 -9 0 -5 5 -7 10 -4 6 3 10 2 10 -2 0 -5 18 -16 40 -26 27
-11 39 -22 34 -30 -5 -9 -4 -9 6 0 11 10 16 9 27 -5 10 -12 12 -12 8 -2 -4 8
4 3 17 -11 13 -14 29 -24 36 -21 7 2 15 -4 18 -13 5 -13 8 -14 15 -3 7 10 9
10 9 1 0 -7 7 -13 15 -13 8 0 15 -4 15 -10 0 -5 9 -10 21 -10 11 0 18 -4 15
-9 -3 -5 1 -12 10 -15 10 -4 13 -2 8 6 -4 6 4 3 18 -8 14 -10 24 -21 23 -24
-2 -3 6 -7 18 -7 12 -1 23 -7 25 -13 2 -5 12 -10 21 -10 10 0 28 -11 41 -25
12 -13 27 -22 32 -19 16 10 67 -17 74 -38 4 -14 8 -17 14 -8 5 8 9 7 14 -5 4
-10 12 -15 21 -11 9 3 18 -1 21 -9 4 -8 10 -12 15 -9 5 3 9 0 9 -5 0 -6 7 -11
16 -11 8 0 12 -4 9 -10 -3 -5 0 -7 9 -4 8 3 22 -3 32 -14 9 -12 24 -18 32 -14
10 3 13 1 8 -6 -6 -11 12 -17 37 -13 4 0 7 -3 7 -9 0 -5 7 -10 15 -10 8 0 15
-8 15 -17 0 -15 2 -16 10 -3 5 8 10 11 10 5 0 -5 5 -3 10 5 7 11 10 11 10 2 0
-8 8 -6 22 7 11 11 25 18 30 15 4 -3 8 2 8 11 0 9 6 15 13 12 6 -2 18 3 25 12
11 13 12 13 7 1 -4 -10 -2 -9 8 2 8 10 17 15 20 11 4 -3 9 2 13 11 3 9 10 13
15 10 5 -3 16 2 25 10 9 9 19 14 24 11 5 -3 10 1 12 7 3 7 13 13 24 13 11 0
18 6 16 14 -3 12 -1 12 13 1 9 -7 15 -9 14 -4 -4 21 2 35 11 29 6 -3 24 4 41
15 16 12 33 20 36 17 3 -4 14 4 24 16 10 12 18 18 19 13 0 -4 17 4 37 20 20
15 33 21 28 13 -8 -12 -6 -12 8 0 9 7 17 20 17 28 0 8 5 11 10 8 6 -4 7 -12 3
-18 -3 -7 3 -4 14 6 11 9 23 14 28 10 4 -5 6 -3 2 2 -3 6 16 21 43 34 27 13
47 27 44 32 -3 5 2 6 10 3 9 -3 16 -1 16 6 0 6 5 8 10 5 6 -3 10 -1 10 5 0 7
7 9 16 6 8 -3 12 -2 9 4 -3 6 3 10 15 10 12 0 18 4 15 10 -3 5 3 10 13 10 11
0 27 10 36 22 15 21 17 21 12 3 -6 -20 -6 -20 11 1 10 11 21 21 26 22 21 5 67
34 67 43 0 6 7 6 19 -1 14 -7 22 -7 27 2 5 7 3 8 -6 3 -8 -5 -11 -3 -9 4 3 7
8 12 13 11 16 -3 33 35 32 72 -1 21 3 38 8 38 6 0 4 5 -4 10 -8 5 -10 10 -4
10 6 0 10 12 10 28 -1 15 3 33 9 41 8 12 7 13 -5 6 -13 -8 -13 -7 -1 8 11 14
11 17 0 17 -9 0 -10 3 -3 8 6 4 10 17 9 30 -1 12 3 22 9 22 6 0 4 5 -4 10 -8
5 -10 10 -4 10 6 0 10 11 9 25 -2 14 2 25 8 25 7 0 5 5 -3 10 -8 5 -10 10 -4
10 11 0 12 3 15 60 1 19 6 43 11 54 8 14 7 17 -3 11 -8 -6 -10 -4 -4 5 5 7 9
33 11 58 1 24 7 49 12 54 12 12 3 50 -10 42 -6 -4 -2 6 8 22 14 21 15 26 4 19
-12 -7 -13 -6 -4 6 6 8 11 31 10 52 0 20 3 37 7 37 5 0 5 5 2 10 -3 6 0 10 7
10 8 0 9 3 3 8 -14 10 -18 35 -4 26 8 -5 10 1 7 20 -3 15 -1 26 6 26 6 0 4 5
-4 10 -11 7 -11 10 -2 10 10 0 10 5 1 21 -7 13 -7 19 -1 15 6 -3 13 -2 17 4 3
5 0 10 -7 10 -10 0 -10 2 -1 8 8 5 9 13 3 22 -5 8 -5 21 1 32 6 10 7 23 4 28
-3 6 -2 10 3 10 10 0 9 30 -2 48 -4 6 -3 12 2 12 6 0 13 7 16 16 4 10 2 13 -7
8 -9 -6 -9 -5 0 7 10 12 10 18 0 29 -9 10 -9 11 1 6 14 -8 17 10 2 19 -7 4 -5
14 4 27 11 16 12 26 5 41 -8 14 -8 17 0 13 11 -7 21 24 19 59 -2 45 2 66 13
59 8 -5 8 -1 0 13 -6 11 -7 23 -4 27 10 10 13 37 3 31 -4 -3 -6 4 -3 15 3 11
9 17 14 14 5 -3 5 6 0 19 -6 14 -8 27 -6 28 1 2 -3 10 -11 17 -9 8 -14 9 -14
2 0 -6 -5 -8 -10 -5 -6 4 -7 11 -4 17 4 6 -2 6 -15 -1 -18 -10 -21 -9 -21 6 0
15 -2 16 -10 3 -7 -11 -10 -11 -10 -2 0 7 -4 10 -10 7 -5 -3 -10 -2 -10 4 0 6
-7 7 -17 4 -12 -5 -14 -3 -8 7 6 10 3 12 -13 8 -12 -3 -23 -1 -24 4 -2 6 -19
11 -37 13 -18 1 -37 8 -41 15 -5 9 -9 9 -14 1 -10 -16 -24 -13 -28 5 -3 15
-27 23 -80 27 -10 1 -18 4 -18 7 0 3 -9 11 -21 18 -16 10 -19 10 -13 1 5 -9 2
-10 -10 -6 -10 4 -20 7 -22 7 -3 0 -3 4 0 9 3 5 0 9 -7 8 -32 -1 -48 4 -42 13
4 7 -3 7 -19 0 -20 -7 -26 -6 -26 4 0 7 -6 13 -12 14 -17 1 -39 7 -60 16 -9 4
-21 5 -27 2 -5 -4 -13 -1 -17 5 -5 8 -3 9 6 4 9 -5 11 -4 6 4 -4 6 -11 9 -16
6 -5 -3 -11 -1 -14 4 -3 5 -15 7 -26 4 -12 -3 -20 0 -20 7 0 7 -6 10 -14 7 -8
-3 -22 1 -33 8 -10 8 -26 15 -35 15 -10 0 -18 5 -18 11 0 8 -5 8 -15 -1 -8 -7
-15 -9 -15 -4 0 5 -11 14 -25 21 -19 8 -23 8 -19 0 5 -8 2 -7 -7 1 -7 6 -21
12 -32 12 -10 0 -15 5 -12 10 3 6 -3 10 -14 10 -12 0 -21 6 -21 13 0 9 -2 9
-9 -1 -11 -18 -22 -17 -32 1 -5 8 -21 13 -38 12 -17 -1 -28 2 -25 7 3 4 -4 8
-15 8 -12 0 -21 5 -21 10 0 6 -5 10 -11 10 -5 0 -7 -4 -4 -10 3 -6 -1 -7 -9
-4 -9 3 -13 11 -9 17 4 6 0 8 -10 4 -9 -3 -18 -1 -21 6 -3 8 -5 9 -5 1z"/>
</g>
</svg>
